<mxfile host="65bd71144e">
    <diagram id="BuvLAUDx45e2gYIwQ_DK" name="ページ1">
        <mxGraphModel dx="161" dy="321" grid="1" gridSize="10" guides="1" tooltips="1" connect="1" arrows="1" fold="1" page="1" pageScale="1" pageWidth="827" pageHeight="1169" math="0" shadow="0">
            <root>
                <mxCell id="0"/>
                <mxCell id="1" parent="0"/>
                <mxCell id="2" value="おはまちこする" style="rounded=1;whiteSpace=wrap;html=1;fillColor=#90CAF9;fontSize=28;fontFamily=Verdana;fontColor=#000000;" parent="1" vertex="1">
                    <mxGeometry x="10" y="10" width="230" height="50" as="geometry"/>
                </mxCell>
            </root>
        </mxGraphModel>
    </diagram>
</mxfile>